<?xml version="1.0" standalone="no"?>
<!DOCTYPE svg PUBLIC "-//W3C//DTD SVG 20010904//EN"
 "http://www.w3.org/TR/2001/REC-SVG-20010904/DTD/svg10.dtd">
<svg version="1.0" xmlns="http://www.w3.org/2000/svg"
 width="1623.000000pt" height="344.000000pt" viewBox="0 0 1623.000000 344.000000"
 preserveAspectRatio="xMidYMid meet">
<metadata>
Created by potrace 1.15, written by Peter Selinger 2001-2017
</metadata>
<g transform="translate(0.000000,344.000000) scale(0.100000,-0.100000)"
fill="#5f3c00" stroke="none">
<path d="M7518 3417 l-208 -20 0 -29 c0 -24 8 -32 70 -63 48 -24 74 -44 80
-61 6 -15 10 -294 10 -708 0 -670 0 -684 -20 -709 -14 -18 -38 -30 -75 -38
-53 -12 -55 -13 -55 -46 l0 -33 305 0 305 0 0 33 c0 33 -2 34 -54 46 -100 22
-91 -58 -92 850 l0 796 -30 1 c-16 1 -122 -8 -236 -19z"/>
<path d="M11548 3417 l-208 -20 0 -29 c0 -24 8 -32 70 -63 38 -19 74 -43 79
-53 5 -10 11 -93 13 -185 3 -146 1 -166 -12 -161 -35 16 -265 16 -340 0 -232
-48 -400 -211 -456 -441 -23 -94 -23 -314 0 -409 38 -159 121 -271 243 -329
66 -31 72 -32 198 -32 146 1 187 12 306 84 l64 39 5 -61 c4 -51 8 -62 25 -66
11 -2 111 9 222 25 l203 28 0 26 c0 22 -9 31 -61 55 -33 16 -64 34 -67 40 -4
5 -9 361 -12 790 l-5 780 -30 1 c-16 1 -123 -8 -237 -19z m-137 -612 c19 -10
46 -29 62 -43 l27 -26 0 -411 0 -411 -45 -22 c-70 -34 -164 -48 -227 -33 -104
23 -162 82 -201 205 -19 63 -22 93 -22 256 0 189 8 248 46 337 33 78 107 144
184 164 45 12 137 3 176 -16z"/>
<path d="M15615 3374 c-11 -2 -50 -6 -87 -9 -84 -8 -92 -29 -24 -62 34 -17 45
-28 50 -53 9 -46 6 -791 -3 -814 -4 -11 -23 -25 -42 -31 -23 -8 -35 -19 -37
-33 -3 -22 -2 -22 178 -22 179 0 181 0 178 21 -2 14 -15 25 -38 33 l-35 11 -3
483 -2 482 -58 -1 c-31 -1 -66 -3 -77 -5z"/>
<path d="M0 3262 c0 -39 1 -40 41 -46 60 -10 77 -22 89 -64 6 -24 10 -259 10
-655 0 -701 2 -677 -72 -698 -24 -6 -49 -13 -55 -15 -8 -2 -13 -19 -13 -40 l0
-36 438 5 c485 5 516 8 647 71 100 48 148 93 192 184 37 74 38 79 38 186 0
134 -21 190 -95 260 -73 69 -162 106 -308 131 -42 7 -65 13 -51 14 35 1 154
38 202 63 57 29 116 86 145 142 24 46 26 62 27 156 0 95 -3 110 -28 162 -33
68 -80 111 -162 149 -118 55 -172 60 -627 66 l-418 5 0 -40z m765 -91 c87 -39
125 -123 125 -278 0 -123 -13 -173 -61 -227 -53 -60 -104 -76 -236 -76 l-103
0 0 294 c0 226 3 296 13 299 6 3 59 6 117 6 81 0 114 -4 145 -18z m47 -713
c104 -48 146 -157 136 -350 -11 -218 -119 -313 -332 -292 -58 5 -75 11 -98 34
l-28 28 0 307 0 307 133 -4 c117 -3 139 -7 189 -30z"/>
<path d="M12970 3281 c0 -15 12 -23 47 -33 41 -12 49 -18 54 -43 11 -50 10
-717 -1 -756 -9 -32 -15 -37 -53 -45 -33 -7 -43 -14 -45 -32 l-4 -24 289 4
c319 5 356 11 434 71 60 45 83 96 87 187 3 64 0 82 -21 120 -30 56 -91 96
-176 113 l-63 13 43 13 c60 17 123 55 142 85 44 67 42 182 -4 247 -27 38 -99
74 -174 88 -32 6 -170 11 -307 11 -239 0 -248 -1 -248 -19z m493 -68 c39 -20
60 -74 60 -158 0 -125 -46 -175 -165 -175 l-68 0 0 174 0 175 33 4 c45 6 107
-3 140 -20z m24 -423 c52 -31 68 -72 68 -175 0 -146 -42 -195 -167 -195 -99 0
-98 -3 -98 211 l0 179 83 0 c64 0 89 -4 114 -20z"/>
<path d="M14060 3067 c-91 -21 -135 -51 -145 -99 -16 -71 43 -118 120 -97 39
11 49 25 60 84 4 22 11 46 17 53 18 21 84 15 115 -12 27 -23 28 -28 31 -129
l4 -106 -39 -10 c-21 -5 -67 -17 -103 -26 -179 -44 -240 -97 -240 -210 0 -96
55 -159 152 -174 83 -14 164 5 215 51 21 20 21 20 32 -1 21 -38 67 -53 145
-49 83 4 130 24 134 56 3 19 -1 22 -30 22 -74 0 -78 16 -78 298 0 231 -1 240
-23 273 -36 56 -102 82 -216 85 -55 2 -120 -2 -151 -9z m200 -491 c0 -101 -1
-105 -26 -125 -37 -29 -95 -28 -130 2 -21 18 -28 35 -32 75 -9 103 33 148 146
151 l42 1 0 -104z"/>
<path d="M14718 3062 c-136 -17 -147 -29 -73 -74 l45 -27 -2 -273 -3 -273 -37
-9 c-30 -8 -38 -14 -38 -33 l0 -23 181 0 c180 0 180 0 177 22 -2 15 -13 24
-36 30 -21 6 -36 17 -42 34 -6 14 -10 133 -10 264 l0 238 63 11 c122 21 158 9
177 -57 13 -47 13 -422 0 -456 -6 -17 -21 -28 -42 -34 -23 -6 -34 -15 -36 -30
-3 -22 -3 -22 177 -22 l181 0 0 24 c0 19 -7 25 -34 30 -19 4 -37 14 -40 22 -3
9 -6 124 -6 257 0 143 -5 258 -11 282 -33 122 -186 149 -361 62 l-67 -33 -3
41 c-4 49 -1 48 -160 27z"/>
<path d="M15910 3040 c0 -13 10 -24 25 -30 57 -22 48 -42 -80 -187 -52 -59
-95 -114 -95 -123 0 -20 101 -181 172 -275 l53 -70 123 -3 c118 -3 122 -2 122
18 0 14 -10 24 -30 32 -34 11 -142 150 -239 304 l-55 86 106 104 c72 70 116
105 139 111 24 7 35 16 37 31 3 22 2 22 -137 22 -135 0 -141 -1 -141 -20z"/>
<path d="M1960 2920 c-177 -28 -321 -131 -405 -292 -55 -103 -77 -202 -78
-343 -1 -206 50 -343 168 -454 107 -100 221 -141 390 -142 162 -1 278 34 427
130 57 36 58 37 58 84 0 26 -2 47 -5 47 -2 0 -37 -11 -77 -24 -213 -71 -409
-52 -520 52 -72 67 -108 157 -123 305 l-7 67 384 0 385 0 -4 73 c-12 217 -83
364 -215 440 -83 49 -259 76 -378 57z m115 -91 c88 -25 131 -109 142 -275 l6
-91 -94 -7 c-52 -3 -149 -9 -216 -12 l-122 -6 5 58 c17 188 71 294 170 329 48
17 59 18 109 4z"/>
<path d="M3375 2916 c-65 -16 -126 -48 -197 -103 l-58 -44 0 71 c0 55 -3 72
-16 77 -14 5 -344 -29 -416 -43 -20 -4 -28 -12 -28 -27 0 -16 17 -32 64 -61
35 -22 69 -50 75 -63 7 -16 11 -166 11 -453 0 -412 -1 -431 -19 -449 -18 -18
-79 -41 -108 -41 -8 0 -13 -14 -13 -35 l0 -35 310 0 310 0 0 35 c0 24 -5 35
-15 35 -34 0 -117 23 -130 37 -13 12 -15 76 -15 433 l0 419 29 21 c36 25 107
51 124 44 6 -2 22 -22 35 -45 36 -62 74 -81 154 -77 58 3 71 8 98 33 91 87 49
248 -71 274 -59 13 -59 13 -124 -3z"/>
<path d="M5604 2920 c-107 -16 -228 -73 -303 -143 -90 -85 -162 -242 -181
-394 -43 -338 113 -605 395 -678 69 -18 238 -21 305 -6 104 24 186 58 282 120
57 36 58 37 58 84 0 26 -2 47 -5 47 -2 0 -37 -11 -77 -24 -95 -32 -226 -49
-302 -41 -186 22 -297 130 -332 324 -7 42 -13 91 -14 109 l0 32 381 0 382 0
-6 108 c-8 175 -72 312 -180 386 -66 45 -118 63 -220 76 -90 11 -108 11 -183
0z m111 -91 c88 -25 131 -109 142 -275 l6 -91 -94 -7 c-52 -3 -149 -9 -216
-12 l-123 -7 6 64 c17 183 73 290 170 324 48 17 59 18 109 4z"/>
<path d="M7040 2919 c-66 -13 -161 -63 -219 -115 l-51 -46 0 76 c0 62 -3 78
-16 83 -14 5 -332 -28 -407 -43 -23 -5 -28 -10 -25 -32 2 -20 17 -34 60 -59
32 -19 63 -44 70 -56 10 -17 13 -124 13 -453 0 -494 6 -463 -91 -485 -52 -12
-54 -13 -54 -46 l0 -33 310 0 310 0 0 33 c0 33 -1 34 -62 45 -105 19 -99 -12
-96 471 l3 416 65 33 c39 20 72 31 82 27 10 -4 29 -27 43 -51 14 -24 39 -51
55 -59 42 -22 138 -19 176 4 85 52 82 231 -5 276 -37 19 -108 25 -161 14z"/>
<path d="M8432 2919 c-152 -14 -274 -64 -318 -129 -34 -50 -34 -127 2 -169 46
-55 160 -65 218 -20 26 21 56 100 56 149 0 15 9 39 21 54 18 23 27 26 86 26
78 0 122 -18 148 -63 17 -28 20 -55 23 -204 l4 -172 -39 -10 c-21 -5 -108 -28
-194 -49 -228 -58 -327 -114 -382 -217 -18 -33 -22 -56 -21 -130 0 -101 13
-140 64 -199 91 -103 297 -134 454 -66 25 10 65 37 89 60 l44 40 13 -30 c31
-75 102 -104 239 -98 77 3 107 9 154 30 50 24 57 30 57 56 0 27 -4 30 -41 36
-58 9 -94 31 -107 63 -8 19 -12 164 -14 428 -3 382 -4 402 -24 445 -45 96
-143 152 -302 170 -96 11 -110 11 -230 -1z m238 -830 l0 -181 -30 -28 c-37
-35 -110 -52 -165 -40 -88 20 -130 84 -130 195 1 162 81 225 293 234 l32 1 0
-181z"/>
<path d="M3880 2895 c-96 -13 -178 -24 -182 -24 -5 -1 -8 -11 -8 -24 0 -17 14
-31 56 -56 103 -62 94 -11 94 -511 0 -422 -1 -441 -19 -459 -18 -18 -79 -41
-108 -41 -8 0 -13 -14 -13 -35 l0 -35 300 0 300 0 0 33 c0 33 -2 34 -54 46
-92 21 -87 -11 -84 477 l3 429 80 16 c114 24 212 24 252 -1 69 -42 68 -31 71
-468 3 -454 7 -433 -83 -453 -53 -12 -55 -13 -55 -46 l0 -33 300 0 300 0 0 33
c0 33 -2 34 -54 46 -96 21 -90 -11 -96 505 -6 502 -4 490 -76 560 -55 53 -120
70 -253 64 -123 -6 -230 -40 -337 -107 l-63 -40 -3 72 -3 72 -45 1 c-25 1
-124 -9 -220 -21z"/>
<path d="M9415 2894 c-99 -12 -181 -23 -182 -23 -2 -1 -3 -11 -3 -23 0 -17 16
-33 64 -62 35 -22 69 -50 75 -63 7 -16 11 -166 11 -453 0 -412 -1 -431 -19
-449 -18 -18 -79 -41 -108 -41 -8 0 -13 -14 -13 -35 l0 -35 295 0 295 0 0 33
c0 33 -2 34 -60 50 -46 13 -61 22 -65 39 -3 13 -4 212 -3 443 l3 420 80 17
c167 34 259 19 300 -52 19 -33 20 -54 23 -420 2 -297 -1 -391 -11 -410 -9 -19
-27 -29 -70 -40 -55 -14 -57 -15 -57 -47 l0 -33 300 0 300 0 0 33 c0 33 -2 34
-54 46 -96 21 -90 -10 -96 500 -5 489 -5 488 -68 554 -58 61 -94 72 -237 72
-122 -1 -135 -3 -215 -33 -46 -18 -110 -48 -143 -67 -32 -19 -60 -35 -62 -35
-2 0 -5 30 -7 68 l-3 67 -45 1 c-25 1 -126 -9 -225 -22z"/>
<path d="M12400 1440 l0 -1440 45 0 45 0 0 1440 0 1440 -45 0 -45 0 0 -1440z"/>
</g>
</svg>
